<?xml version="1.0" encoding="UTF-8"?>
<svg width="60px" height="40px" viewBox="0 0 60 40" version="1.1" xmlns="http://www.w3.org/2000/svg" xmlns:xlink="http://www.w3.org/1999/xlink">
    <!-- Generator: Sketch 58 (84663) - https://sketch.com -->
    <title>icon-cohort-course-large</title>
    <desc>Created with Sketch.</desc>
    <g id="IDEO-U-" stroke="none" stroke-width="1" fill="none" fill-rule="evenodd">
        <g id="1.-HOMEPAGE" transform="translate(-687.000000, -914.000000)" stroke="#000000">
            <g id="What-We-Offer-Section" transform="translate(-1.000000, 736.000000)">
                <g id="Icon/Cohort-Course/60x40" transform="translate(688.000000, 178.000000)">
                    <g id="Group-7">
                        <rect id="Rectangle" stroke-width="2" x="1" y="35" width="58" height="4" rx="2"></rect>
                        <rect id="Rectangle" stroke-width="2" x="7" y="1" width="46" height="30" rx="1"></rect>
                        <g id="Group" transform="translate(13.750000, 5.500000)" stroke-linecap="round" stroke-linejoin="round" stroke-width="2">
                            <circle id="Oval" cx="16.25" cy="3.75" r="3.75"></circle>
                            <path d="M16.25,8.75 C12.7982203,8.75 10,11.5482203 10,15 L10,21.25 L22.5,21.25 L22.5,15 C22.4968301,11.5495342 19.7004658,8.75316993 16.25,8.75 Z" id="Path"></path>
                            <g id="Group-5" transform="translate(22.500000, 0.000000)">
                                <circle id="Oval" cx="5" cy="3" r="3"></circle>
                                <path d="M5,7 C2.23857625,7 0,9.23857625 0,12 L0,17 L10,17 L10,12 C9.99746406,9.23962736 7.76037264,7.00253594 5,7 Z" id="Path"></path>
                            </g>
                            <circle id="Oval" cx="5" cy="3" r="3"></circle>
                            <path d="M5,7 C2.23857625,7 0,9.23857625 0,12 L0,17 L10,17 L10,12 C9.99746406,9.23962736 7.76037264,7.00253594 5,7 Z" id="Path"></path>
                        </g>
                    </g>
                </g>
            </g>
        </g>
    </g>
</svg>